<svg xmlns="http://www.w3.org/2000/svg" viewBox="0 0 600 600" width="600" height="600" role="img">
  <rect width="600" height="600" fill="#f7f8f8"/>
  <circle cx="300" cy="300" r="238" fill="#ffffff"/>
  <circle cx="300" cy="300" r="238" fill="none" stroke="#e5e7eb" stroke-width="4"/>
  <path d="M450.0 300.0 L444.9 338.8 L417.8 331.6 L405.7 361.0 L429.9 375.0 L406.1 406.1 L386.3 386.3 L361.0 405.7 L375.0 429.9 L338.8 444.9 L331.6 417.8 L300.0 422.0 L300.0 450.0 L261.2 444.9 L268.4 417.8 L239.0 405.7 L225.0 429.9 L193.9 406.1 L213.7 386.3 L194.3 361.0 L170.1 375.0 L155.1 338.8 L182.2 331.6 L178.0 300.0 L150.0 300.0 L155.1 261.2 L182.2 268.4 L194.3 239.0 L170.1 225.0 L193.9 193.9 L213.7 213.7 L239.0 194.3 L225.0 170.1 L261.2 155.1 L268.4 182.2 L300.0 178.0 L300.0 150.0 L338.8 155.1 L331.6 182.2 L361.0 194.3 L375.0 170.1 L406.1 193.9 L386.3 213.7 L405.7 239.0 L429.9 225.0 L444.9 261.2 L417.8 268.4 L422.0 300.0 Z" fill="none" stroke="#1f2937" stroke-width="12" stroke-linecap="round" stroke-linejoin="round"/><circle cx="300" cy="300" r="50" fill="none" stroke="#c62828" stroke-width="14" stroke-linecap="round" stroke-linejoin="round"/>
</svg>
