<svg xmlns="http://www.w3.org/2000/svg" viewBox="0 0 600 600" width="600" height="600" role="img">
  <rect width="600" height="600" fill="#f7f8f8"/>
  <circle cx="300" cy="300" r="238" fill="#ffffff"/>
  <circle cx="300" cy="300" r="238" fill="none" stroke="#e5e7eb" stroke-width="4"/>
  <rect x="170" y="210" width="260" height="180" rx="30" fill="none" stroke="#1f2937" stroke-width="14" stroke-linecap="round" stroke-linejoin="round"/>
    <path d="M362.0 300.0 L359.9 316.0 L346.4 312.4 L341.6 324.0 L353.7 331.0 L343.8 343.8 L333.9 333.9 L324.0 341.6 L331.0 353.7 L316.0 359.9 L312.4 346.4 L300.0 348.0 L300.0 362.0 L284.0 359.9 L287.6 346.4 L276.0 341.6 L269.0 353.7 L256.2 343.8 L266.1 333.9 L258.4 324.0 L246.3 331.0 L240.1 316.0 L253.6 312.4 L252.0 300.0 L238.0 300.0 L240.1 284.0 L253.6 287.6 L258.4 276.0 L246.3 269.0 L256.2 256.2 L266.1 266.1 L276.0 258.4 L269.0 246.3 L284.0 240.1 L287.6 253.6 L300.0 252.0 L300.0 238.0 L316.0 240.1 L312.4 253.6 L324.0 258.4 L331.0 246.3 L343.8 256.2 L333.9 266.1 L341.6 276.0 L353.7 269.0 L359.9 284.0 L346.4 287.6 L348.0 300.0 Z" fill="none" stroke="#c62828" stroke-width="10" stroke-linecap="round" stroke-linejoin="round"/>
    <circle cx="300" cy="300" r="16" fill="#1f2937"/>
    <path d="M430 300 h60" fill="none" stroke="#1f2937" stroke-width="14" stroke-linecap="round" stroke-linejoin="round"/>
</svg>
